<svg id="Ebene_1" data-name="Ebene 1" xmlns="http://www.w3.org/2000/svg" viewBox="0 0 748.51 408.67"><defs><style>.cls-1{fill:#dc0d15;}.cls-2{fill:#283587;}.cls-3{fill:#fff;}</style></defs><title>ASSLogoGloberP</title><path class="cls-1" d="M278.12,244.24a20.61,20.61,0,1,1,0-41.23h35a20.61,20.61,0,1,1,0,41.23h-35Z" transform="translate(-46 -96.28)"/><path class="cls-1" d="M545.12,244.24a20.61,20.61,0,0,1,0-41.23h35a20.61,20.61,0,1,1,0,41.23h-35Z" transform="translate(-46 -96.28)"/><polygon class="cls-1" points="0 274.21 748.35 274.21 748.35 347.92 0 347.92 0 274.21 0 274.21"/><polygon class="cls-1" points="0 274.21 748.35 274.21 748.35 347.92 0 347.92 0 274.21 0 274.21"/><polygon class="cls-2" points="0 260.2 41.18 260.2 41.24 228.52 0 228.52 0 260.2"/><polygon class="cls-2" points="0 212.41 41.18 212.41 41.24 180.73 0 180.73 0 212.41"/><path class="cls-2" d="M243.11,228.48V194.83a98.55,98.55,0,1,0-197.11,0v33.65h0v32.21H87.18V194.83a57.37,57.37,0,1,1,114.74,0V203h-82.8a20.63,20.63,0,0,0-20,25.47h0a20.62,20.62,0,0,0,20,15.76h82.8V356.48h248.4a76.56,76.56,0,0,0,76.56-76.56,74.69,74.69,0,0,0-20.28-51.44h0a76.88,76.88,0,0,0-56.28-24.12c-15.87,0-43.46-2.19-43.46-2.19-16.35,0-29.6-12.44-29.6-28.79a29.6,29.6,0,0,1,29.6-29.6l200.84,0a71.3,71.3,0,0,0-6.38,29.64,69.31,69.31,0,0,0,26.88,55.1,72.46,72.46,0,0,0,44.66,15.14s29.79,1.71,40.46,1.71c19.66,0,35.59,14.93,35.59,34.59a35.59,35.59,0,0,1-35.59,35.59H528.87a88.4,88.4,0,0,1-37,41H716.32a76.56,76.56,0,0,0,76.56-76.56,74.68,74.68,0,0,0-20.28-51.44h0a76.88,76.88,0,0,0-56.28-24.12c-15.87,0-43.46-2.19-43.46-2.19-16.35,0-29.6-12.44-29.6-28.79a29.6,29.6,0,0,1,29.6-29.6h97.32V101.83H406.87a71.54,71.54,0,0,0-71.54,71.54,69.31,69.31,0,0,0,26.88,55.1,72.46,72.46,0,0,0,44.66,15.14s29.79,1.71,40.46,1.71c19.65,0,35.59,14.93,35.59,34.59a35.59,35.59,0,0,1-35.59,35.59H243.11v-87" transform="translate(-46 -96.28)"/><path class="cls-2" d="M462.07,458.38a17.12,17.12,0,0,1,4,.43v33.7a8.7,8.7,0,0,1-3,.43,9.7,9.7,0,0,1-3.12-.43V482c0-5.28-.19-11.9.34-15.89H460c-0.82,3-3.36,8-5.28,12.14l-3.36,7.06a6.15,6.15,0,0,1-1.78.24,3.74,3.74,0,0,1-1.54-.24c-1.1-2.26-2.26-4.51-3.36-6.82-2.06-4.18-4.66-9.36-5.42-12.38h-0.29c0.72,3.36.58,9.6,0.58,14.69v11.71a8,8,0,0,1-2.88.43,7.87,7.87,0,0,1-2.74-.43v-33.7a14.54,14.54,0,0,1,3.7-.43,18.14,18.14,0,0,1,3.65.43l4.37,8.78a79.82,79.82,0,0,1,4.13,9.41H450a36.57,36.57,0,0,1,1.92-5c2.16-4.37,4.22-8.79,6.24-13.2A19.71,19.71,0,0,1,462.07,458.38Z" transform="translate(-46 -96.28)"/><path class="cls-2" d="M481.94,467.22c7,0,9.6,2.88,9.6,8.93v16.42a5.18,5.18,0,0,1-2.35.38,7.19,7.19,0,0,1-2.45-.38L485.82,490c-1.1,2.26-3.55,3.46-7,3.46-4.56,0-7.44-2.69-7.44-8.3,0-5.42,3.41-7.63,9.36-7.63,1.68,0,3.36.1,4.75,0.24v-1.06c0-2.4-.86-4.37-4.32-4.37a19.34,19.34,0,0,0-6.14,1.15,4.11,4.11,0,0,1-1.34-1.78,5,5,0,0,1-.38-2.54A19.75,19.75,0,0,1,481.94,467.22Zm-0.43,14.31c-2.45,0-3.89,1-3.89,3.6s1.3,3.7,3.46,3.7c3.36,0,4.42-3.12,4.42-5.67v-1.44C484.29,481.62,482.9,481.52,481.5,481.52Z" transform="translate(-46 -96.28)"/><path class="cls-2" d="M515.15,456.94a8.81,8.81,0,0,1,3,.38v35.24a8.18,8.18,0,0,1-2.54.38,10.54,10.54,0,0,1-2.78-.38l-0.38-2.06c-1.34,1.87-3.46,2.93-6.82,2.93-5.38,0-8.88-3.31-8.88-13.11s3.5-13.11,8.88-13.11c3.07,0,5.09.86,6.48,2.5V457.33A9.86,9.86,0,0,1,515.15,456.94Zm-7.39,15.17c-3,0-4.8,1.44-4.8,8.21s1.78,8.21,4.8,8.21c2.69,0,4.32-2.16,4.32-5.18V477.1C512,474.18,510.35,472.11,507.76,472.11Z" transform="translate(-46 -96.28)"/><path class="cls-2" d="M529.6,482.19c0.43,4.9,2.59,6.14,6,6.14a13.1,13.1,0,0,0,5.47-1.15,6.38,6.38,0,0,1,1.82,4.27s-2.83,2-8.16,2c-7.83,0-11.28-4.56-11.28-13.25,0-9.07,4.32-13,10.95-13,6,0,9.84,3.07,9.84,9.94a21.35,21.35,0,0,1-.53,5H529.6Zm4.75-10.27c-2.45,0-4.27,1.63-4.71,6.1h8.45c0-.53.1-1.06,0.1-1.58C538.19,473.94,537.38,471.92,534.35,471.92Z" transform="translate(-46 -96.28)"/><path class="cls-2" d="M565.65,463.47a9.69,9.69,0,0,1-3,.38,8.64,8.64,0,0,1-3-.38V458a8.64,8.64,0,0,1,3-.38,9.69,9.69,0,0,1,3,.38v5.52Zm0,29.09a9.69,9.69,0,0,1-3,.38,8.64,8.64,0,0,1-3-.38V468.08a8.64,8.64,0,0,1,3-.38,9.69,9.69,0,0,1,3,.38v24.48Z" transform="translate(-46 -96.28)"/><path class="cls-2" d="M592.15,492.56a9.7,9.7,0,0,1-3,.38,8.64,8.64,0,0,1-3-.38v-17c0-2.06-1.1-3.46-3.84-3.46a6.13,6.13,0,0,0-4.22,1.78v18.67a9.7,9.7,0,0,1-3,.38,8.64,8.64,0,0,1-3-.38V468.08a8.64,8.64,0,0,1,3-.38,9.7,9.7,0,0,1,3,.38v1.44a9.47,9.47,0,0,1,6.58-2.3c4.94,0,7.54,3,7.54,7.3v18Z" transform="translate(-46 -96.28)"/><path class="cls-2" d="M623.3,457.9a21.74,21.74,0,0,1,9.12,1.68,6.3,6.3,0,0,1-1.82,4.51,23.82,23.82,0,0,0-6.62-1c-5.57,0-9.6,2.69-9.6,12.63s4,12.43,9.6,12.43a25.89,25.89,0,0,0,3.17-.19v-9.75h-6a5.66,5.66,0,0,1-.48-2.45,5.76,5.76,0,0,1,.48-2.5H632.9v18.48a24.28,24.28,0,0,1-9.6,1.68c-10,0-15.36-6.19-15.36-17.76S613.31,457.9,623.3,457.9Z" transform="translate(-46 -96.28)"/><path class="cls-2" d="M644.17,482.19c0.43,4.9,2.59,6.14,6,6.14a13.1,13.1,0,0,0,5.47-1.15,6.38,6.38,0,0,1,1.82,4.27s-2.83,2-8.16,2c-7.83,0-11.28-4.56-11.28-13.25,0-9.07,4.32-13,10.95-13,6,0,9.84,3.07,9.84,9.94a21.35,21.35,0,0,1-.53,5H644.17Zm4.75-10.27c-2.45,0-4.27,1.63-4.71,6.1h8.45c0-.53.1-1.06,0.1-1.58C652.77,473.94,652,471.92,648.93,471.92Z" transform="translate(-46 -96.28)"/><path class="cls-2" d="M675.13,467.26a7.28,7.28,0,0,1,4.22,1.25,7.15,7.15,0,0,1-2.59,5.14,4.31,4.31,0,0,0-2.79-1.06,5.34,5.34,0,0,0-4.18,2.5v17.47a9.7,9.7,0,0,1-3,.38,8.64,8.64,0,0,1-3-.38V468.08a8.64,8.64,0,0,1,3-.38,9.7,9.7,0,0,1,3,.38v2.74C671.49,468.51,673.26,467.26,675.13,467.26Z" transform="translate(-46 -96.28)"/><path class="cls-2" d="M708.83,467.22c4.7,0,7.3,3,7.3,7.3v18a9.7,9.7,0,0,1-3,.38,8.64,8.64,0,0,1-3-.38v-17c0-2.06-1-3.46-3.6-3.46a5.45,5.45,0,0,0-4,1.73v18.72a9.69,9.69,0,0,1-3,.38,8.64,8.64,0,0,1-3-.38v-17c0-2.06-1-3.46-3.6-3.46a5.53,5.53,0,0,0-4,1.73v18.72a9.7,9.7,0,0,1-3,.38,8.64,8.64,0,0,1-3-.38V468.08a8.64,8.64,0,0,1,3-.38,9.7,9.7,0,0,1,3,.38v1.39a9.18,9.18,0,0,1,6.29-2.26c2.64,0,4.66.77,6.14,2.83A10,10,0,0,1,708.83,467.22Z" transform="translate(-46 -96.28)"/><path class="cls-2" d="M731.34,467.22c7,0,9.6,2.88,9.6,8.93v16.42a5.18,5.18,0,0,1-2.35.38,7.19,7.19,0,0,1-2.45-.38L735.23,490c-1.1,2.26-3.55,3.46-7,3.46-4.56,0-7.44-2.69-7.44-8.3,0-5.42,3.41-7.63,9.36-7.63,1.68,0,3.36.1,4.75,0.24v-1.06c0-2.4-.86-4.37-4.32-4.37a19.34,19.34,0,0,0-6.14,1.15,4.11,4.11,0,0,1-1.34-1.78,5,5,0,0,1-.38-2.54A19.75,19.75,0,0,1,731.34,467.22Zm-0.43,14.31c-2.45,0-3.89,1-3.89,3.6s1.3,3.7,3.46,3.7c3.36,0,4.42-3.12,4.42-5.67v-1.44C733.69,481.62,732.3,481.52,730.91,481.52Z" transform="translate(-46 -96.28)"/><path class="cls-2" d="M767.2,492.56a9.7,9.7,0,0,1-3,.38,8.64,8.64,0,0,1-3-.38v-17c0-2.06-1.1-3.46-3.84-3.46a6.13,6.13,0,0,0-4.22,1.78v18.67a9.7,9.7,0,0,1-3,.38,8.64,8.64,0,0,1-3-.38V468.08a8.64,8.64,0,0,1,3-.38,9.7,9.7,0,0,1,3,.38v1.44a9.47,9.47,0,0,1,6.58-2.3c4.94,0,7.54,3,7.54,7.3v18Z" transform="translate(-46 -96.28)"/><path class="cls-2" d="M786.06,495.68c-1.87,6-3.65,9.26-9.7,9.26a7,7,0,0,1-2.78-.53,6.34,6.34,0,0,1-.43-2.26,7,7,0,0,1,.43-2.4,16.58,16.58,0,0,0,2.21.19c2.35,0,3.36-.29,4.85-5.14l0.58-1.87a4.51,4.51,0,0,1-1.87-.38l-8.64-24.48a10.81,10.81,0,0,1,3.12-.38,10,10,0,0,1,3.12.38l4.51,12.87a43.66,43.66,0,0,1,1.68,6h0.19a59.56,59.56,0,0,1,1.54-6l3.89-12.87a8.65,8.65,0,0,1,2.93-.38,9.43,9.43,0,0,1,2.83.38Z" transform="translate(-46 -96.28)"/><path class="cls-3" d="M83.3,389.72a13.83,13.83,0,0,1,3.74.43l11.47,33.7a10.13,10.13,0,0,1-3.36.43,7.63,7.63,0,0,1-3-.43l-2.59-7.68H76.49l-2.59,7.68a8.57,8.57,0,0,1-3,.43,7.82,7.82,0,0,1-2.83-.43l11.47-33.7A15.68,15.68,0,0,1,83.3,389.72ZM83,396.15a48.17,48.17,0,0,1-1.44,5.33l-3.36,9.74h9.74l-3.26-9.74a49.07,49.07,0,0,1-1.49-5.33H83Z" transform="translate(-46 -96.28)"/><path class="cls-3" d="M127.61,412.18c0,8.06-4.94,12.58-12.53,12.58s-12.48-4.66-12.48-12.58v-22a8.37,8.37,0,0,1,3-.43,9,9,0,0,1,3.12.43v23c0,4,2.3,6.43,6.43,6.43s6.38-2.4,6.38-6.43v-23a7.91,7.91,0,0,1,3-.43,8.84,8.84,0,0,1,3.07.43v22Z" transform="translate(-46 -96.28)"/><path class="cls-3" d="M156.74,389.72a7.47,7.47,0,0,1,.48,2.59,7.69,7.69,0,0,1-.48,2.69h-8.5v28.85a9.2,9.2,0,0,1-3.07.43,7.63,7.63,0,0,1-3.07-.43V395h-8.74a6.54,6.54,0,0,1-.48-2.59,7.69,7.69,0,0,1,.48-2.69h23.38Z" transform="translate(-46 -96.28)"/><path class="cls-3" d="M174.07,389.24c8.45,0,13.87,5.33,13.87,17.76s-5.28,17.76-13.87,17.76S160.2,419.43,160.2,407,165.62,389.24,174.07,389.24Zm0,5.09c-4.42,0-7.39,2.5-7.39,12.67s3,12.67,7.39,12.67,7.39-2.54,7.39-12.67S178.58,394.33,174.07,394.33Z" transform="translate(-46 -96.28)"/><path class="cls-3" d="M223,389.72a17.12,17.12,0,0,1,4,.43v33.7a8.71,8.71,0,0,1-3,.43,9.7,9.7,0,0,1-3.12-.43V413.33c0-5.28-.19-11.9.34-15.89h-0.29c-0.82,3-3.36,8-5.28,12.14l-3.36,7.06a6.15,6.15,0,0,1-1.78.24,3.74,3.74,0,0,1-1.54-.24c-1.1-2.26-2.26-4.51-3.36-6.82-2.06-4.18-4.66-9.36-5.42-12.38h-0.29c0.72,3.36.58,9.6,0.58,14.69v11.71a8,8,0,0,1-2.88.43,7.87,7.87,0,0,1-2.74-.43v-33.7a14.54,14.54,0,0,1,3.7-.43,18.14,18.14,0,0,1,3.65.43l4.37,8.78a79.9,79.9,0,0,1,4.13,9.41h0.24a36.7,36.7,0,0,1,1.92-5c2.16-4.37,4.22-8.79,6.24-13.2A19.72,19.72,0,0,1,223,389.72Z" transform="translate(-46 -96.28)"/><path class="cls-3" d="M247.41,389.72a13.83,13.83,0,0,1,3.74.43l11.47,33.7a10.13,10.13,0,0,1-3.36.43,7.63,7.63,0,0,1-3-.43l-2.59-7.68H240.6L238,423.85a8.57,8.57,0,0,1-3,.43,7.82,7.82,0,0,1-2.83-.43l11.47-33.7A15.68,15.68,0,0,1,247.41,389.72Zm-0.34,6.43a48.17,48.17,0,0,1-1.44,5.33l-3.36,9.74H252l-3.26-9.74a49.07,49.07,0,0,1-1.49-5.33h-0.19Z" transform="translate(-46 -96.28)"/><path class="cls-3" d="M286,389.72a7.47,7.47,0,0,1,.48,2.59A7.69,7.69,0,0,1,286,395h-8.5v28.85a9.2,9.2,0,0,1-3.07.43,7.63,7.63,0,0,1-3.07-.43V395h-8.74a6.54,6.54,0,0,1-.48-2.59,7.69,7.69,0,0,1,.48-2.69H286Z" transform="translate(-46 -96.28)"/><path class="cls-3" d="M311.88,389.72a6.18,6.18,0,0,1,.48,2.3,7,7,0,0,1-.48,2.64H298.2v9.7h11.28a6.9,6.9,0,0,1,.48,2.4,6.65,6.65,0,0,1-.48,2.54H298.2v10h14.16a6.89,6.89,0,0,1,.48,2.4,6.65,6.65,0,0,1-.48,2.54H292.05V389.72h19.83Z" transform="translate(-46 -96.28)"/><path class="cls-3" d="M330.45,389.72c8.74,0,14.21,4.85,14.21,17.28s-5.47,17.28-14.21,17.28H319.17V389.72h11.28ZM330,419.19c4.66,0,8.06-2.06,8.06-12.19s-3.41-12.19-8.06-12.19h-4.7v24.39H330Z" transform="translate(-46 -96.28)"/><path class="cls-3" d="M351.09,412.57a7.43,7.43,0,0,1,0-4.42h10.56a7.43,7.43,0,0,1,0,4.42H351.09Z" transform="translate(-46 -96.28)"/><path class="cls-3" d="M379.07,389.24a29,29,0,0,1,9.65,1.44,7.37,7.37,0,0,1-1.63,4.8,24.69,24.69,0,0,0-7.15-1.06c-4.66,0-6.86,1.54-6.86,4.66s4.18,3.84,8.35,5.33,8.64,3.89,8.64,10c0,6.67-4.18,10.32-12.39,10.32a25.39,25.39,0,0,1-10.7-2.11,9,9,0,0,1,1.44-4.9,34,34,0,0,0,9,1.49c4.46,0,6.34-1.58,6.34-4.66,0-2.59-2.16-3.79-5-4.8C373.84,408,367,406.85,367,399.37,367,393.32,370.91,389.24,379.07,389.24Z" transform="translate(-46 -96.28)"/><path class="cls-3" d="M416.32,389.72a6.18,6.18,0,0,1,.48,2.3,7,7,0,0,1-.48,2.64H402.64v9.7h11.28a6.9,6.9,0,0,1,.48,2.4,6.65,6.65,0,0,1-.48,2.54H402.64v10H416.8a6.89,6.89,0,0,1,.48,2.4,6.65,6.65,0,0,1-.48,2.54H396.5V389.72h19.83Z" transform="translate(-46 -96.28)"/><path class="cls-3" d="M444.5,404.12a50.22,50.22,0,0,1-1.2-8.21h-0.24a55,55,0,0,1-1.25,8.21l-4.32,19.73a19.75,19.75,0,0,1-4.08.43,15.55,15.55,0,0,1-3.65-.43l-9-33.7a8.51,8.51,0,0,1,3.07-.43,8.2,8.2,0,0,1,3.07.43l5.47,20.55c0.86,3.31,1.49,7.1,1.49,7.1h0.19s0.48-3.7,1.25-7.06l4.7-20.59a9.12,9.12,0,0,1,3.26-.43,9.44,9.44,0,0,1,3.36.43l4.66,20.55a64.32,64.32,0,0,1,1.15,7.1h0.19a71.07,71.07,0,0,1,1.49-7.06l5.57-20.59a9.49,9.49,0,0,1,5.67,0l-9.12,33.7a13.77,13.77,0,0,1-3.6.43,16.93,16.93,0,0,1-3.79-.43Z" transform="translate(-46 -96.28)"/><path class="cls-3" d="M470.8,390.15a8.37,8.37,0,0,1,3-.43,9,9,0,0,1,3.12.43v33.7a9.19,9.19,0,0,1-3.07.43,7.63,7.63,0,0,1-3.07-.43v-33.7Z" transform="translate(-46 -96.28)"/><path class="cls-3" d="M493.79,404.55a55.39,55.39,0,0,1-3.12-7.06h-0.19s0.38,3.79.38,8.78v17.57a7.35,7.35,0,0,1-2.88.43,6.79,6.79,0,0,1-2.78-.43v-33.7a12.82,12.82,0,0,1,3.7-.43,11.85,11.85,0,0,1,3.65.43l9.89,19.2a59.63,59.63,0,0,1,3.22,7.2h0.19s-0.38-4-.38-8.93V390.15a7.05,7.05,0,0,1,2.88-.43,6.25,6.25,0,0,1,2.78.43v33.7a11.33,11.33,0,0,1-3.6.43,13.43,13.43,0,0,1-3.74-.43Z" transform="translate(-46 -96.28)"/><path class="cls-3" d="M533.34,389.24a21.74,21.74,0,0,1,9.12,1.68,6.3,6.3,0,0,1-1.82,4.51,23.82,23.82,0,0,0-6.62-1c-5.57,0-9.6,2.69-9.6,12.63s4,12.43,9.6,12.43a25.89,25.89,0,0,0,3.17-.19v-9.75h-6a5.67,5.67,0,0,1-.48-2.45,5.77,5.77,0,0,1,.48-2.5h11.81v18.48a24.28,24.28,0,0,1-9.6,1.68c-10,0-15.36-6.19-15.36-17.76S523.36,389.24,533.34,389.24Z" transform="translate(-46 -96.28)"/><path class="cls-3" d="M549.81,412.57a7.43,7.43,0,0,1,0-4.42h10.56a7.43,7.43,0,0,1,0,4.42H549.81Z" transform="translate(-46 -96.28)"/><path class="cls-3" d="M577.79,389.24a29,29,0,0,1,9.65,1.44,7.36,7.36,0,0,1-1.63,4.8,24.68,24.68,0,0,0-7.15-1.06c-4.66,0-6.87,1.54-6.87,4.66s4.18,3.84,8.35,5.33,8.64,3.89,8.64,10c0,6.67-4.18,10.32-12.39,10.32a25.39,25.39,0,0,1-10.7-2.11,9,9,0,0,1,1.44-4.9,34,34,0,0,0,9,1.49c4.46,0,6.34-1.58,6.34-4.66,0-2.59-2.16-3.79-5-4.8-4.94-1.78-11.81-2.93-11.81-10.42C565.69,393.32,569.63,389.24,577.79,389.24Z" transform="translate(-46 -96.28)"/><path class="cls-3" d="M617.78,389.72a13.06,13.06,0,0,1,3.41.43l-11.86,19.73v14a8.24,8.24,0,0,1-3,.43,8.52,8.52,0,0,1-3.17-.43V410l-11.52-19.87a13,13,0,0,1,3.74-.43,11.54,11.54,0,0,1,3.46.43l7.83,13.58,7.92-13.58A9.48,9.48,0,0,1,617.78,389.72Z" transform="translate(-46 -96.28)"/><path class="cls-3" d="M636,389.24a29,29,0,0,1,9.65,1.44,7.37,7.37,0,0,1-1.63,4.8,24.69,24.69,0,0,0-7.15-1.06c-4.66,0-6.86,1.54-6.86,4.66s4.18,3.84,8.35,5.33,8.64,3.89,8.64,10c0,6.67-4.18,10.32-12.38,10.32a25.4,25.4,0,0,1-10.71-2.11,9,9,0,0,1,1.44-4.9,34,34,0,0,0,9,1.49c4.46,0,6.34-1.58,6.34-4.66,0-2.59-2.16-3.79-5-4.8-4.95-1.78-11.81-2.93-11.81-10.42C623.87,393.32,627.81,389.24,636,389.24Z" transform="translate(-46 -96.28)"/><path class="cls-3" d="M674.42,389.72a7.48,7.48,0,0,1,.48,2.59,7.7,7.7,0,0,1-.48,2.69h-8.5v28.85a9.2,9.2,0,0,1-3.07.43,7.63,7.63,0,0,1-3.07-.43V395H651a6.55,6.55,0,0,1-.48-2.59,7.7,7.7,0,0,1,.48-2.69h23.38Z" transform="translate(-46 -96.28)"/><path class="cls-3" d="M700.29,389.72a6.18,6.18,0,0,1,.48,2.3,7,7,0,0,1-.48,2.64H686.61v9.7h11.28a6.9,6.9,0,0,1,.48,2.4,6.65,6.65,0,0,1-.48,2.54H686.61v10h14.16a6.89,6.89,0,0,1,.48,2.4,6.65,6.65,0,0,1-.48,2.54H680.46V389.72h19.83Z" transform="translate(-46 -96.28)"/><path class="cls-3" d="M735.71,389.72a17.12,17.12,0,0,1,4,.43v33.7a8.71,8.71,0,0,1-3,.43,9.7,9.7,0,0,1-3.12-.43V413.33c0-5.28-.19-11.9.34-15.89H733.6c-0.82,3-3.36,8-5.28,12.14L725,416.65a6.15,6.15,0,0,1-1.78.24,3.74,3.74,0,0,1-1.54-.24c-1.1-2.26-2.26-4.51-3.36-6.82-2.06-4.18-4.66-9.36-5.42-12.38h-0.29c0.72,3.36.58,9.6,0.58,14.69v11.71a8,8,0,0,1-2.88.43,7.87,7.87,0,0,1-2.74-.43v-33.7a14.54,14.54,0,0,1,3.7-.43,18.14,18.14,0,0,1,3.65.43l4.37,8.78a80,80,0,0,1,4.13,9.41h0.24a36.57,36.57,0,0,1,1.92-5c2.16-4.37,4.22-8.79,6.24-13.2A19.72,19.72,0,0,1,735.71,389.72Z" transform="translate(-46 -96.28)"/><path class="cls-3" d="M758.6,389.24a29,29,0,0,1,9.65,1.44,7.37,7.37,0,0,1-1.63,4.8,24.69,24.69,0,0,0-7.15-1.06c-4.66,0-6.86,1.54-6.86,4.66s4.18,3.84,8.35,5.33,8.64,3.89,8.64,10c0,6.67-4.18,10.32-12.38,10.32a25.4,25.4,0,0,1-10.71-2.11,9,9,0,0,1,1.44-4.9,34,34,0,0,0,9,1.49c4.46,0,6.34-1.58,6.34-4.66,0-2.59-2.16-3.79-5-4.8-4.95-1.78-11.81-2.93-11.81-10.42C746.51,393.32,750.44,389.24,758.6,389.24Z" transform="translate(-46 -96.28)"/></svg>